<mxfile host="app.diagrams.net" agent="Mozilla/5.0 (Windows NT 10.0; Win64; x64) AppleWebKit/537.36 (KHTML, like Gecko) Chrome/136.0.0.0 Safari/537.36" version="27.1.1">
  <diagram id="C5RBs43oDa-KdzZeNtuy" name="Page-1">
    <mxGraphModel dx="969" dy="479" grid="1" gridSize="10" guides="1" tooltips="1" connect="1" arrows="1" fold="1" page="1" pageScale="1" pageWidth="827" pageHeight="1169" math="0" shadow="0">
      <root>
        <mxCell id="WIyWlLk6GJQsqaUBKTNV-0" />
        <mxCell id="WIyWlLk6GJQsqaUBKTNV-1" parent="WIyWlLk6GJQsqaUBKTNV-0" />
        <mxCell id="gltYfRJmKmL3rBifxeSQ-0" value="Pengguna" style="swimlane;whiteSpace=wrap;html=1;" vertex="1" parent="WIyWlLk6GJQsqaUBKTNV-1">
          <mxGeometry x="40" y="20" width="200" height="650" as="geometry" />
        </mxCell>
        <mxCell id="gltYfRJmKmL3rBifxeSQ-2" value="Pengguna sudah login" style="shape=note;whiteSpace=wrap;html=1;backgroundOutline=1;darkOpacity=0.05;size=9;" vertex="1" parent="gltYfRJmKmL3rBifxeSQ-0">
          <mxGeometry x="60" y="50" width="80" height="50" as="geometry" />
        </mxCell>
        <mxCell id="gltYfRJmKmL3rBifxeSQ-8" style="edgeStyle=orthogonalEdgeStyle;rounded=0;orthogonalLoop=1;jettySize=auto;html=1;entryX=0.5;entryY=0;entryDx=0;entryDy=0;" edge="1" parent="gltYfRJmKmL3rBifxeSQ-0" source="gltYfRJmKmL3rBifxeSQ-4" target="gltYfRJmKmL3rBifxeSQ-5">
          <mxGeometry relative="1" as="geometry" />
        </mxCell>
        <mxCell id="gltYfRJmKmL3rBifxeSQ-4" value="Pilih bidang side job yang diminati" style="rounded=1;whiteSpace=wrap;html=1;" vertex="1" parent="gltYfRJmKmL3rBifxeSQ-0">
          <mxGeometry x="40" y="180" width="120" height="60" as="geometry" />
        </mxCell>
        <mxCell id="gltYfRJmKmL3rBifxeSQ-10" style="edgeStyle=orthogonalEdgeStyle;rounded=0;orthogonalLoop=1;jettySize=auto;html=1;entryX=0.5;entryY=0;entryDx=0;entryDy=0;" edge="1" parent="gltYfRJmKmL3rBifxeSQ-0" source="gltYfRJmKmL3rBifxeSQ-5" target="gltYfRJmKmL3rBifxeSQ-9">
          <mxGeometry relative="1" as="geometry" />
        </mxCell>
        <mxCell id="gltYfRJmKmL3rBifxeSQ-5" value="Pilih jangka waktu yang dapat diluangkan" style="rounded=1;whiteSpace=wrap;html=1;" vertex="1" parent="gltYfRJmKmL3rBifxeSQ-0">
          <mxGeometry x="40" y="270" width="120" height="60" as="geometry" />
        </mxCell>
        <mxCell id="gltYfRJmKmL3rBifxeSQ-14" style="edgeStyle=orthogonalEdgeStyle;rounded=0;orthogonalLoop=1;jettySize=auto;html=1;entryX=0.5;entryY=0;entryDx=0;entryDy=0;" edge="1" parent="gltYfRJmKmL3rBifxeSQ-0" source="gltYfRJmKmL3rBifxeSQ-9" target="gltYfRJmKmL3rBifxeSQ-13">
          <mxGeometry relative="1" as="geometry" />
        </mxCell>
        <mxCell id="gltYfRJmKmL3rBifxeSQ-9" value="Pilih bentuk kerja sampingan yang dicari (WFH, WFO atau mix)" style="rounded=1;whiteSpace=wrap;html=1;" vertex="1" parent="gltYfRJmKmL3rBifxeSQ-0">
          <mxGeometry x="40" y="360" width="120" height="60" as="geometry" />
        </mxCell>
        <mxCell id="gltYfRJmKmL3rBifxeSQ-13" value="Klik Submit" style="rounded=1;whiteSpace=wrap;html=1;" vertex="1" parent="gltYfRJmKmL3rBifxeSQ-0">
          <mxGeometry x="40" y="450" width="120" height="60" as="geometry" />
        </mxCell>
        <mxCell id="gltYfRJmKmL3rBifxeSQ-1" value="Sistem" style="swimlane;whiteSpace=wrap;html=1;" vertex="1" parent="WIyWlLk6GJQsqaUBKTNV-1">
          <mxGeometry x="240" y="20" width="200" height="650" as="geometry" />
        </mxCell>
        <mxCell id="gltYfRJmKmL3rBifxeSQ-3" value="Tampilkan form preferensi side job" style="rounded=1;whiteSpace=wrap;html=1;" vertex="1" parent="gltYfRJmKmL3rBifxeSQ-1">
          <mxGeometry x="40" y="100" width="120" height="60" as="geometry" />
        </mxCell>
        <mxCell id="gltYfRJmKmL3rBifxeSQ-17" style="edgeStyle=orthogonalEdgeStyle;rounded=0;orthogonalLoop=1;jettySize=auto;html=1;exitX=0.5;exitY=1;exitDx=0;exitDy=0;entryX=0.5;entryY=0;entryDx=0;entryDy=0;" edge="1" parent="gltYfRJmKmL3rBifxeSQ-1" source="gltYfRJmKmL3rBifxeSQ-11" target="gltYfRJmKmL3rBifxeSQ-15">
          <mxGeometry relative="1" as="geometry" />
        </mxCell>
        <mxCell id="gltYfRJmKmL3rBifxeSQ-11" value="Cari side job yang sesuai / mendekati preferensi pengguna" style="rounded=1;whiteSpace=wrap;html=1;" vertex="1" parent="gltYfRJmKmL3rBifxeSQ-1">
          <mxGeometry x="35" y="450" width="130" height="60" as="geometry" />
        </mxCell>
        <mxCell id="gltYfRJmKmL3rBifxeSQ-15" value="Tampilkan side job yang sesuai / mendekati preferensi pengguna" style="rounded=1;whiteSpace=wrap;html=1;" vertex="1" parent="gltYfRJmKmL3rBifxeSQ-1">
          <mxGeometry x="35" y="550" width="130" height="60" as="geometry" />
        </mxCell>
        <mxCell id="gltYfRJmKmL3rBifxeSQ-6" style="edgeStyle=orthogonalEdgeStyle;rounded=0;orthogonalLoop=1;jettySize=auto;html=1;entryX=0.545;entryY=0.001;entryDx=0;entryDy=0;entryPerimeter=0;" edge="1" parent="WIyWlLk6GJQsqaUBKTNV-1" source="gltYfRJmKmL3rBifxeSQ-2" target="gltYfRJmKmL3rBifxeSQ-3">
          <mxGeometry relative="1" as="geometry" />
        </mxCell>
        <mxCell id="gltYfRJmKmL3rBifxeSQ-7" style="edgeStyle=orthogonalEdgeStyle;rounded=0;orthogonalLoop=1;jettySize=auto;html=1;exitX=0.5;exitY=1;exitDx=0;exitDy=0;entryX=1;entryY=0.5;entryDx=0;entryDy=0;" edge="1" parent="WIyWlLk6GJQsqaUBKTNV-1" source="gltYfRJmKmL3rBifxeSQ-3" target="gltYfRJmKmL3rBifxeSQ-4">
          <mxGeometry relative="1" as="geometry" />
        </mxCell>
        <mxCell id="gltYfRJmKmL3rBifxeSQ-12" style="edgeStyle=orthogonalEdgeStyle;rounded=0;orthogonalLoop=1;jettySize=auto;html=1;entryX=0;entryY=0.5;entryDx=0;entryDy=0;exitX=1;exitY=0.5;exitDx=0;exitDy=0;" edge="1" parent="WIyWlLk6GJQsqaUBKTNV-1" source="gltYfRJmKmL3rBifxeSQ-13" target="gltYfRJmKmL3rBifxeSQ-11">
          <mxGeometry relative="1" as="geometry" />
        </mxCell>
      </root>
    </mxGraphModel>
  </diagram>
</mxfile>
